<svg id="Layer_1" data-name="Layer 1" xmlns="http://www.w3.org/2000/svg" viewBox="0 0 97.2 97.5"><defs><style>.cls-1{fill:#fffdfd;}</style></defs><title>Artboard 1</title><g id="wordpress"><path class="cls-1" d="M49.6,54.3a20.9,20.9,0,0,0-.8-2.3c-.3.2-.3.5-.4.7L41.3,73.4c-.3.7,0,.9.5,1a26,26,0,0,0,14.1-.3c.6-.2.8-.4.6-1.1Z"/><path class="cls-1" d="M26.8,45.2c-.7-2-1.4-4-2.2-6h-.2a7.8,7.8,0,0,1-.5,1.4,24,24,0,0,0-1.3,11.9c1.1,8.7,5.6,15.2,13.2,19.6.2.1.5.3.7.2s0-.5-.1-.8Z"/><path class="cls-1" d="M63,40a19.6,19.6,0,0,1-1.3-2.5,5.6,5.6,0,0,1-.6-3.4,4.5,4.5,0,0,1,3.6-3.9c.2-.1.5,0,.5-.3s-.2-.3-.4-.5h-.1a25.3,25.3,0,0,0-16.6-5.8c-8.7.1-15.6,3.8-20.9,10.7-.1.2-.4.4-.2.7s.4.1.6.1c2.4,0,4.9-.1,7.3-.3.8,0,1.3.3,1.4,1A1.1,1.1,0,0,1,35.2,37l-1.8.2c-.9.1-.9.1-.6,1L41,62.8c.3.6.5,1.3.8,2.1s.1-.3.2-.4l5.2-15.7a2.4,2.4,0,0,0,0-1.2l-3.6-9.8a.8.8,0,0,0-.8-.6,16.6,16.6,0,0,1-2.2-.3,1,1,0,0,1-.8-1.4c.2-.7.7-.8,1.4-.8l4.6.3a62.4,62.4,0,0,0,8.6-.3,1.3,1.3,0,0,1,1.4,1A1.1,1.1,0,0,1,54.7,37l-1.8.2c-1,.1-1,.1-.7,1,2.9,8.5,5.8,17,8.6,25.5.1.3.1.6.4.8l.2-.3c1.1-3.6,2.2-7.3,3.4-11A13.9,13.9,0,0,0,63,40Z"/><path class="cls-1" d="M70.1,46.7c-2.8,8-5.6,15.9-8.3,23.9-.1.2-.3.5-.2.7,10.8-5.9,16.3-21.2,9.6-34A22.6,22.6,0,0,1,70.1,46.7Z"/><path class="cls-1" d="M49,.7C22.5.5.6,22.4.5,48.8s21.7,48.3,47.9,48S96.5,75.3,96.6,49.1,75.2.9,49,.7ZM85.7,54.2a36,36,0,0,1-9.4,20.4Q63.6,88.4,44.8,86.9A35.5,35.5,0,0,1,23,77.4C13.3,68.5,9.2,57.5,10.7,44.5A37.8,37.8,0,0,1,38.8,12.6c2.1-.5,4.2-.8,6.3-1.1h6.2l1.8.3A37.7,37.7,0,0,1,84.8,39.7,46.6,46.6,0,0,1,86,46.2v6.2Z"/></g></svg>