<svg id="Layer_1" data-name="Layer 1" xmlns="http://www.w3.org/2000/svg" viewBox="0 0 97.2 97.5"><defs><style>.cls-1{fill:#fffdfd;}.cls-2{fill:#fff;}</style></defs><title>01Artboard 1</title><path class="cls-1" d="M49,.7C22.5.5.6,22.4.5,48.8s21.7,48.3,47.9,48S96.5,75.3,96.6,49.1,75.2.9,49,.7ZM76.8,73.9H19.9v-57H76.8Z"/><path class="cls-1" d="M61.4,29.1h0Z"/><path class="cls-1" d="M35.4,39h0Z"/><path class="cls-2" d="M19.9,73.9H76.8v-57H19.9Zm3.9-.3L42.7,57.8,45,59.4,47.4,61a2.1,2.1,0,0,0,1.9,0c1.5-1.1,3.1-2.1,4.7-3.1L72.9,73.6Zm9.9-37.5c.3-.6.8-.7,1.5-.7H61.4a1.8,1.8,0,0,1,1,.2c.8.3.9,1,.7,2.3A1.3,1.3,0,0,1,61.7,39H35.4A1.8,1.8,0,0,1,33.7,36.1Zm.1-6.4c.2-.5.7-.6,1.3-.6H61.4c.7,0,1.3,0,1.6.7a2.3,2.3,0,0,1-.1,2.3c-.2.5-.7.6-1.3.6H35.3c-.7,0-1.3-.1-1.6-.7A2.6,2.6,0,0,1,33.8,29.7Zm0,12.5a1.6,1.6,0,0,1,1.4-.5H53c.7,0,1.3.1,1.5.8a2.1,2.1,0,0,1-.3,2.4,2.5,2.5,0,0,1-1.2.4H35.3c-.7,0-1.3-.1-1.6-.8A2.4,2.4,0,0,1,33.8,42.2ZM76.6,72.5,56.7,56.2l19.9-14ZM23.2,37.1,26,35a1.1,1.1,0,0,0,.3-.8V24.5a2.3,2.3,0,0,1,2.6-2.6H41.3a1.4,1.4,0,0,0,.9-.3l4.9-4.1a1.7,1.7,0,0,1,2.3,0c1.6,1.4,3.2,2.8,4.9,4.1a1.1,1.1,0,0,0,.8.3H67.9a2.3,2.3,0,0,1,2.5,2.5v10a.9.9,0,0,0,.4.8l5.6,3.9L66.8,45V26.8c0-1.1-.3-1.3-1.3-1.3H31.2c-1,0-1.3.3-1.3,1.3V45.5l-9.6-6.2Zm-3.1,5.1L40,56.2,20.1,72.5Z"/><path d="M35.3,45.3h0Z"/></svg>