<?xml version="1.0" standalone="no"?>
<!DOCTYPE svg PUBLIC "-//W3C//DTD SVG 20010904//EN"
 "http://www.w3.org/TR/2001/REC-SVG-20010904/DTD/svg10.dtd">
<svg version="1.0" xmlns="http://www.w3.org/2000/svg"
 width="700.000000pt" height="700.000000pt" viewBox="0 0 700.000000 700.000000"
 preserveAspectRatio="xMidYMid meet">
<metadata>
Created by potrace 1.11, written by Peter Selinger 2001-2013
</metadata>
<g transform="translate(0.000000,700.000000) scale(0.100000,-0.100000)"
fill="#000000" stroke="none">
<path d="M3240 5855 c-270 -30 -537 -108 -785 -229 -734 -359 -1223 -1057
-1316 -1875 -17 -157 -7 -495 21 -651 116 -657 489 -1221 1049 -1589 120 -79
366 -200 498 -245 274 -94 488 -129 788 -129 244 0 353 12 562 63 327 81 635
230 899 436 457 357 771 883 874 1464 31 174 39 513 16 690 -36 271 -109 517
-226 755 -438 892 -1394 1418 -2380 1310z m481 -1031 c415 -70 784 -343 973
-720 101 -204 139 -365 140 -599 0 -239 -41 -413 -146 -617 -96 -188 -256
-373 -420 -486 l-77 -52 -33 57 c-19 32 -171 295 -338 585 -244 422 -309 528
-325 528 -16 0 -82 -106 -325 -527 -167 -291 -319 -554 -338 -586 l-33 -57
-77 52 c-275 190 -480 510 -549 855 -25 131 -23 376 6 510 57 271 174 486 371
683 199 199 442 326 715 374 111 20 340 20 456 0z"/>
</g>
</svg>
