<svg id="Layer_1" data-name="Layer 1" xmlns="http://www.w3.org/2000/svg" viewBox="0 0 97.2 97.5"><defs><style>.cls-1{fill:#fffdfd;}</style></defs><title>Artboard 1</title><path class="cls-1" d="M60.8,41.4a2.9,2.9,0,0,0,3.2-3,2.9,2.9,0,0,0-3.1-2.9c-1.9,0-3.2,1.2-3.1,2.9A2.8,2.8,0,0,0,60.8,41.4Z"/><path class="cls-1" d="M39.8,55.9h7.4l2.1,6.7h6.3L47.5,36.5H39.8l-8,26.1h6.1ZM43.4,41h0c.4,1.5,3,10.5,3,10.5H40.6Z"/><rect class="cls-1" x="57.9" y="43.7" width="5.9" height="18.91"/><path class="cls-1" d="M49,.7C22.5.5.6,22.4.5,48.8s21.7,48.3,47.9,48S96.5,75.3,96.6,49.1,75.2.9,49,.7ZM72.8,73.9H23V24.1H72.8Z"/></svg>