<svg id="Layer_1" data-name="Layer 1" xmlns="http://www.w3.org/2000/svg" viewBox="0 0 97.2 97.5"><defs><style>.cls-1{fill:#fffdfd;}</style></defs><title>Artboard 1</title><g id="rpi"><path class="cls-1" d="M29.6,42.6l.5-.2a9.1,9.1,0,0,0,1.7-.9,39,39,0,0,0,5.1-4A31.1,31.1,0,0,0,40,34.3l.7-1.1c.2-.4,0-.6-.3-.6l-2.1-.2-2.3.3a8.6,8.6,0,0,0-5.7,3.9,9.7,9.7,0,0,0-1.2,4.1,6.1,6.1,0,0,0-.1,1.4C29,42.4,29.2,42.6,29.6,42.6Z"/><path class="cls-1" d="M35.5,29.7H36l-.3.6-.5.3h.3a11.3,11.3,0,0,0,2.6,0,9.5,9.5,0,0,0,3.7-1.2,5.7,5.7,0,0,0,2.6-3.1.8.8,0,0,0-.1-.4,31.7,31.7,0,0,0-4.9-4,73.4,73.4,0,0,0-7.1-4.2l-.7-.4h.1l2.7.9a55.2,55.2,0,0,1,5.5,2.6,35.8,35.8,0,0,1,5.5,3.8c.1.1.2.1.2,0a3.7,3.7,0,0,0,2.1-2,4.4,4.4,0,0,0,0-3,11.7,11.7,0,0,0-2.2-4.1l-.8-.9c-.1.4.1.9-.2,1.1l-2.3-2.5h0v.7c0,.3,0,.5-.2.6l-2-1.9h0a1.3,1.3,0,0,1-.4,1.4l-1.3-1-1.4-.7h0l.4.5a.7.7,0,0,1-.2.8,5.5,5.5,0,0,0-3.2-1.4l.6.6.3.3c0,.1-.1.3-.1.4h-.3l-2.5-.7h-.2l.3.2.3.4c0,.1,0,.3-.1.3h-.3a12,12,0,0,0-2-.3,6.5,6.5,0,0,0-1.4,0h0l.8,1.1H26l.6,1.2c.2.4.3.9.5,1.3H25.7a3.6,3.6,0,0,0,.8,1.2l1.1.7.3.3a2,2,0,0,1-1.7.1,31.1,31.1,0,0,0,2.3,2.8H27.1l2.5,1.9a2.2,2.2,0,0,1-1.4.3,18.6,18.6,0,0,0,3.3,1.9,2.1,2.1,0,0,1-1.4.3c1.1,1,2.5,1.2,3.7,1.7a2.1,2.1,0,0,1-1,.6h0l.9.2Z"/><path class="cls-1" d="M29.8,49.1a19.1,19.1,0,0,0-.2-2,2.8,2.8,0,0,0-.6-1.5.9.9,0,0,0-1.2-.3A8.4,8.4,0,0,0,25,47.8a9.3,9.3,0,0,0-.9,8.4,8.4,8.4,0,0,0,2,2.9c.2.1.3.2.5.1a1.5,1.5,0,0,0,.9-.4,10.9,10.9,0,0,0,.8-1.5A24.4,24.4,0,0,0,29.8,49.1Z"/><path class="cls-1" d="M34,60.8a5.2,5.2,0,0,0-3.2-.9,2.5,2.5,0,0,0-2.4,1.6,5.9,5.9,0,0,0-.4,2.3,5.7,5.7,0,0,0,.1,1.3,10.6,10.6,0,0,0,1.5,4.2,9.8,9.8,0,0,0,4.5,3.8,6.4,6.4,0,0,0,3.9.5,2.1,2.1,0,0,0,1.4-.7,3.8,3.8,0,0,0,.7-2.1,10,10,0,0,0-1.5-5.6A13,13,0,0,0,34,60.8Z"/><path class="cls-1" d="M60.3,32.7l-2,.2q-.6,0-.3.6c0,.1.1.2.1.3L59,35a33.5,33.5,0,0,0,4.3,4.1,27.8,27.8,0,0,0,4,3,5.1,5.1,0,0,0,1.7.7c.4.1.6-.1.6-.5a11.4,11.4,0,0,0-.2-2.6A7.9,7.9,0,0,0,66,34.4,9.6,9.6,0,0,0,60.3,32.7Z"/><path class="cls-1" d="M42.6,34.4a2.1,2.1,0,0,0,.1,2.7,5.5,5.5,0,0,0,1.8,1.6,11.1,11.1,0,0,0,5.3,1.2,16.6,16.6,0,0,0,3.2-.3,7.3,7.3,0,0,0,3.2-1.5A2.7,2.7,0,0,0,57.3,36a2.9,2.9,0,0,0-.8-1.9,6.2,6.2,0,0,0-2.5-2A9.4,9.4,0,0,0,50.3,31a8.5,8.5,0,0,0-5.2,1.2A7.6,7.6,0,0,0,42.6,34.4Z"/><path class="cls-1" d="M53.4,24.7c.2.1.3.1.4,0a25.6,25.6,0,0,1,4.8-3.3,69.1,69.1,0,0,1,7.8-3.6l1.2-.4-.4.2c-2.7,1.5-5.5,3-8.1,4.8a29.3,29.3,0,0,0-4.2,3.7c-.1.1-.1.1-.1.3a5.6,5.6,0,0,0,1.1,2,6.7,6.7,0,0,0,3.2,1.7,15.4,15.4,0,0,0,4.8.6h0l-.6-.4c-.2-.2-.2-.3.1-.4h.7l1.8-.2A2.1,2.1,0,0,0,67,29a1.2,1.2,0,0,1-1-.6l1.7-.5,1.5-.8c-.4,0-.8.1-1-.3a16.8,16.8,0,0,0,3.4-2,2.5,2.5,0,0,1-1.5-.3l2.5-2.2c-.5.1-.9.4-1.3,0a10.4,10.4,0,0,0,2.2-2.5c-.6.1-1.1.3-1.7-.1a5,5,0,0,0,2-2.5H72.4a6.2,6.2,0,0,1,1.4-2.5H70.4l.9-.7a2.3,2.3,0,0,0-1.4-.2,7.1,7.1,0,0,0-2,.4.5.5,0,0,1-.5-.1c-.1-.2.1-.3.2-.4s.4-.3.5-.5h0l-3,.8a.4.4,0,0,1,.1-.5l.3-.3.4-.5h0a9.7,9.7,0,0,0-3.3,1.4.5.5,0,0,1-.1-.8l.4-.6A12.2,12.2,0,0,0,60,14.2l-.4-.6c-.1-.3.1-.5.1-.8l-1.2.8-1,1.1c-.4-.4-.3-.8-.2-1.3h-.1l-2.1,2.5-.4-1.1h-.1l-1.2,1.3a9.8,9.8,0,0,0-2,4.4A3.8,3.8,0,0,0,53.4,24.7Z"/><path class="cls-1" d="M49.5,55.6a7.8,7.8,0,0,0-6.2,2.9,7.1,7.1,0,0,0-.1,9,8.8,8.8,0,0,0,11.2,2,7.3,7.3,0,0,0,3.7-6.2A6.8,6.8,0,0,0,55.9,58,8.4,8.4,0,0,0,49.5,55.6Z"/><path class="cls-1" d="M71,45.1a1,1,0,0,0-1.4.2,3.5,3.5,0,0,0-.5.8,11,11,0,0,0-.4,3.1,22.7,22.7,0,0,0,1.2,6.9,5.5,5.5,0,0,0,1,2.2,1.6,1.6,0,0,0,.8.6.6.6,0,0,0,.9-.1l1-1.2A9.1,9.1,0,0,0,75,51.2,7.9,7.9,0,0,0,71,45.1Z"/><path class="cls-1" d="M49,.7C22.5.5.6,22.4.5,48.8s21.7,48.3,47.9,48S96.5,75.3,96.6,49.1,75.2.9,49,.7ZM75.6,59.5h0a3.5,3.5,0,0,0-1,1.9c-.4,1.2-.9,2.4-1.3,3.7L73,66.6a12.4,12.4,0,0,1-6.5,8.3h-.1a5.4,5.4,0,0,0-1.6,1,28,28,0,0,1-6.1,3.4l-.5.2a12,12,0,0,1-5.5,3.3,11.7,11.7,0,0,1-10.9-2.3l-.7-.6a3.4,3.4,0,0,0-1.5-.9,22.7,22.7,0,0,1-6.2-3.7h-.2a8.1,8.1,0,0,1-3.3-2.1A12.3,12.3,0,0,1,26,67.2l-.3-1.7c-.1-.4-.3-.8-.4-1.1a27.9,27.9,0,0,1-1-3.9c0-.1-.1-.2-.2-.3a12.2,12.2,0,0,1-2.5-5.1A11.9,11.9,0,0,1,25,44.5l.9-.7a4.8,4.8,0,0,0,.9-1.1v-.2a19.5,19.5,0,0,1,.3-3.4,10.8,10.8,0,0,1,4.8-6.8l.6-.4.7-.4L32,31.1a1.9,1.9,0,0,1-1.3-1.4.2.2,0,0,0-.2-.2,4.8,4.8,0,0,1-1.6-.8,2.4,2.4,0,0,1-.6-1.1,1.6,1.6,0,0,0-.4-.7,11.4,11.4,0,0,1-1.1-1.1,1.6,1.6,0,0,1-.3-1.2c0-.1-.1-.1-.1-.2a2.3,2.3,0,0,1-1-1.4,3.7,3.7,0,0,1-.1-1.1c.1-.1,0-.2-.1-.3a2.4,2.4,0,0,1-.9-1.5.8.8,0,0,1,.2-.8V19l-.6-.9a1.9,1.9,0,0,1,.2-1.8c.1-.1.1-.2.1-.4a2,2,0,0,1,0-2A2.4,2.4,0,0,1,26,13h.9a2.4,2.4,0,0,1,1.8-.9h1.5a2.4,2.4,0,0,1,2-.5h.3a2.4,2.4,0,0,1,2.3-.5l.4.2a.5.5,0,0,0,.6-.1l.6-.4h.5l1.4.5h.5a2.2,2.2,0,0,1,1.6.1l.6.4h.6a2.1,2.1,0,0,1,1.7.4l.9.9c.2.1.3.2.5.1a1.9,1.9,0,0,1,1.2.4l.8.6a10.5,10.5,0,0,1,2.5,3.8,5.8,5.8,0,0,1,.5,1.4.4.4,0,0,0,.1-.3,25.3,25.3,0,0,1,2-3.6A9.2,9.2,0,0,1,54,13.1h.3a1.2,1.2,0,0,0,1.3-.5l.2-.2a2.3,2.3,0,0,1,1.9-.7,1.2,1.2,0,0,0,1-.3,2.6,2.6,0,0,1,2.1-.3h.3l1.2-.5h.6l1,.5h.2a3.5,3.5,0,0,1,3.3.2h1.7c.3,0,.5.2.7.5h.3a4.6,4.6,0,0,1,2,.3,1.4,1.4,0,0,1,1,.7h1.3a1.8,1.8,0,0,1,1.3,2.4h0a.9.9,0,0,0,0,1.1,2.2,2.2,0,0,1-.4,2.3.6.6,0,0,0-.1.4,2.2,2.2,0,0,1-.4,1.9h0a1.6,1.6,0,0,0-.4,1.2c.1.8-.4,1.3-1,1.8l-.2.3a3.2,3.2,0,0,1-1.7,2.5c-.2.1-.3.2-.3.4a2.8,2.8,0,0,1-2.1,1.8c-.2.1-.4.2-.4.4a2.3,2.3,0,0,1-1.3,1.4l-1.1.3.9.6a12.7,12.7,0,0,1,3.6,3.3,10.2,10.2,0,0,1,1.6,4.4,24,24,0,0,1,.3,2.8c0,.1,0,.2.1.2a2.1,2.1,0,0,0,1,1.1,10.9,10.9,0,0,1,4.2,7A10,10,0,0,1,75.6,59.5Z"/><path class="cls-1" d="M70.4,59.1a1.4,1.4,0,0,0-1.1-.9h-.7a4.6,4.6,0,0,0-2,.5A14.9,14.9,0,0,0,63.4,61a15.3,15.3,0,0,0-3.6,5.1,11.4,11.4,0,0,0-.9,4.8,2.6,2.6,0,0,0,2.2,2.6,5.6,5.6,0,0,0,3.6-.2,10,10,0,0,0,5.6-4.7,9.3,9.3,0,0,0,1.2-5,3.4,3.4,0,0,0-.1-.9A8.8,8.8,0,0,0,70.4,59.1Z"/><path class="cls-1" d="M61.7,56.6a5.3,5.3,0,0,0,2.4-.8,7,7,0,0,0,2.4-3.2,8.2,8.2,0,0,0,.3-4.4,10.9,10.9,0,0,0-2.7-5.6,8.5,8.5,0,0,0-6-2.6,6.2,6.2,0,0,0-5.7,3.3,8.3,8.3,0,0,0-.5,6.9A10.1,10.1,0,0,0,55,54.7a8.8,8.8,0,0,0,5.7,2Z"/><path class="cls-1" d="M56.8,74.9a10.9,10.9,0,0,0-4.3-1.4H49.7a18.3,18.3,0,0,0-6,1.2,5.9,5.9,0,0,0-1.7,1,1.2,1.2,0,0,0-.2,1.5l.3.3a10.3,10.3,0,0,0,3.3,2.6,9.5,9.5,0,0,0,4,1,12.5,12.5,0,0,0,1.9-.3,11.3,11.3,0,0,0,4.8-2.3,11.4,11.4,0,0,0,1.5-1.6,1.1,1.1,0,0,0-.1-1.4Z"/><path class="cls-1" d="M48,47.3a8.6,8.6,0,0,0-.3-1.7,6.4,6.4,0,0,0-2.2-3.9,5.9,5.9,0,0,0-5.4-1.2,9.5,9.5,0,0,0-4.7,2.6A11.5,11.5,0,0,0,34,44.8a9.8,9.8,0,0,0-1.4,3.7,8.1,8.1,0,0,0,.5,4.6,5.9,5.9,0,0,0,5.1,4,7.2,7.2,0,0,0,5.3-1.3A10.4,10.4,0,0,0,48,47.3Z"/></g></svg>