<svg xmlns="http://www.w3.org/2000/svg" viewBox="0 0 97.2 97.5"><defs><style>.cls-1{fill:none;}.cls-2{fill:#fffdfd;}</style></defs><title>Artboard 1</title><g id="Layer_5" data-name="Layer 5"><path class="cls-1" d="M59.7,54.2l-7.1-3.9L59.8,37a1.9,1.9,0,0,0-.8-2.6,1.9,1.9,0,0,0-2.5.8L49.1,48.7a1.9,1.9,0,0,0-1.8.9,2.2,2.2,0,0,0,.2,2.1h-.1a1.9,1.9,0,0,0,.8,2.6,1.8,1.8,0,0,0,2.5-.7l7.2,3.8a1.9,1.9,0,0,0,2.6-.7h0A2,2,0,0,0,59.7,54.2Z"/><path class="cls-1" d="M49.6,23.5A26.2,26.2,0,1,0,75.8,49.7,26.2,26.2,0,0,0,49.6,23.5Zm0,48.6A22.4,22.4,0,1,1,72,49.7,22.4,22.4,0,0,1,49.6,72.1Z"/><path class="cls-2" d="M49,.7C22.5.5.6,22.4.5,48.8s21.7,48.3,47.9,48S96.5,75.3,96.6,49.1,75.2.9,49,.7ZM45,13.6h9.2a2,2,0,0,1,1.9,1.9,1.9,1.9,0,0,1-1.9,1.9H45a1.9,1.9,0,0,1-1.9-1.9A2,2,0,0,1,45,13.6Zm7.8,6.5a1.6,1.6,0,0,1-1.6,1.6H48a1.6,1.6,0,0,1-1.6-1.6A1.7,1.7,0,0,1,48,18.4h3.2A1.7,1.7,0,0,1,52.8,20.1ZM49.6,75.9A26.2,26.2,0,1,1,75.8,49.7,26.2,26.2,0,0,1,49.6,75.9Z"/><path class="cls-2" d="M49.6,27.3A22.4,22.4,0,1,0,72,49.7,22.4,22.4,0,0,0,49.6,27.3ZM60.5,56.8h0a1.9,1.9,0,0,1-2.6.7l-7.2-3.8a1.8,1.8,0,0,1-2.5.7,1.9,1.9,0,0,1-.8-2.6h.1a2.2,2.2,0,0,1-.2-2.1,1.9,1.9,0,0,1,1.8-.9l7.4-13.5a1.9,1.9,0,0,1,2.5-.8,1.9,1.9,0,0,1,.8,2.6L52.6,50.3l7.1,3.9A2,2,0,0,1,60.5,56.8Z"/></g></svg>