<?xml version="1.0" encoding="utf-8"?>
<!-- Generator: Adobe Illustrator 21.1.0, SVG Export Plug-In . SVG Version: 6.00 Build 0)  -->
<svg version="1.1" id="Layer_1" xmlns="http://www.w3.org/2000/svg" xmlns:xlink="http://www.w3.org/1999/xlink" x="0px" y="0px"
	 width="100px" height="100px" viewBox="0 0 100 100" style="enable-background:new 0 0 100 100;" xml:space="preserve">
<style type="text/css">
	.st0{fill:#FFFFFF;}
</style>
<g id="Layer_1_1_">
	<g id="XMLID_19_">
		<path id="XMLID_45_" class="st0" d="M50.8,2.5C77.1,2,98.9,24,99.1,50.2C99.3,76.7,77.4,98.6,51,98.6c-26.3,0-48-21.7-48-48
			C2.9,24.3,24.6,2.2,50.8,2.5z M80.8,65.3c0-12.5,0-24.6,0-36.8c-20,0-39.7,0-59.5,0c0,12.4,0,24.5,0,36.8
			C41.1,65.3,60.7,65.3,80.8,65.3z M37.8,80.2c8.8,0,17.8,0,26.4,0c-3.3-3.3-4.4-6.2-4.4-10.8c-5.9,0-12-0.2-17.6,0.1
			C42.2,74.5,41.5,76.5,37.8,80.2z"/>
		<path id="XMLID_44_" class="st0" d="M25,61.4c0-9.9,0-19.5,0-29.4c17.3,0,35.3,0,52.4,0c0,4.6-0.1,23.1-0.1,29.4
			C60.3,61.4,42.7,61.4,25,61.4z"/>
	</g>
</g>
</svg>
