<svg id="Layer_1" data-name="Layer 1" xmlns="http://www.w3.org/2000/svg" viewBox="0 0 97.2 97.5"><defs><style>.cls-1{fill:#ba2226;stroke:#000;stroke-miterlimit:10;}.cls-2{fill:#fffdfd;}.cls-3{fill:#fff;}</style></defs><title>01Artboard 1</title><rect id="_Path_" data-name="&lt;Path&gt;" class="cls-1" x="-54.2" y="-194.7" width="420.3" height="341.9"/><path class="cls-2" d="M49,.7C22.5.5.6,22.4.5,48.8s21.7,48.3,47.9,48S96.5,75.3,96.6,49.1,75.2.9,49,.7ZM72.8,72.5H23.6c-.4,0-.4,0-.4-.4V24.2H72.4c.4,0,.4,0,.4.4V72.5Z"/><path class="cls-3" d="M64.5,45.6h0V34.4c0-.3-.1-.4-.4-.4H60.9c-.4,0-.5.1-.5.5V40a.3.3,0,0,1-.3.3,8.2,8.2,0,0,0-2.7.1,8.7,8.7,0,0,0-6.2,4.3,11.9,11.9,0,0,0-.8,8.5,7.7,7.7,0,0,0,7.3,5.9,12.7,12.7,0,0,0,3.4-.2,17.3,17.3,0,0,0,3.2-1.1c.2-.1.3-.2.2-.4V45.6Zm-4.4,9.8c-2.1.5-4.6-.1-5.5-2.7a8.6,8.6,0,0,1,0-6.1,4.5,4.5,0,0,1,3.5-2.9,6,6,0,0,1,1.9,0c.3.1.4.2.4.5v5.4h0V55C60.4,55.3,60.3,55.4,60.1,55.4Z"/><path class="cls-3" d="M48.5,57.4l-5.7-11c-.2-.3-.1-.5,0-.8l5.8-11.1c.2-.4.2-.5-.3-.5H45c-.3,0-.4.1-.6.4-1.3,2.9-2.6,5.8-4,8.6,0,.2-.1.3-.2.5l-.2-.3c-1.3-3-2.7-5.9-4.1-8.9a.5.5,0,0,0-.5-.3H31.6c-.3,0-.4.1-.2.4l5.9,11.7a.6.6,0,0,1,0,.6L31.2,58.4c-.2.3-.1.4.2.4h3.3a.8.8,0,0,0,.9-.6l4.2-8.8a.4.4,0,0,1,.1-.3l.2.3c.6,1.3,1.2,2.6,1.9,3.9l2.4,5.1c.2.3.3.4.6.4h3.8c.3,0,.4-.1.2-.4A4.7,4.7,0,0,0,48.5,57.4Z"/></svg>