<svg xmlns="http://www.w3.org/2000/svg" viewBox="0 0 589.2 395.6"><defs><style>.cls-1{fill:#cdedf9;}.cls-13,.cls-19,.cls-2,.cls-21,.cls-28,.cls-29,.cls-31,.cls-36,.cls-42,.cls-48,.cls-5,.cls-53,.cls-57,.cls-67{fill:#fff;}.cls-3{fill:#dd3722;}.cls-13,.cls-19,.cls-21,.cls-28,.cls-29,.cls-31,.cls-36,.cls-4,.cls-42,.cls-48,.cls-5,.cls-53{isolation:isolate;}.cls-13,.cls-19,.cls-21,.cls-28,.cls-29,.cls-31,.cls-36,.cls-42,.cls-48,.cls-5{font-size:12px;}.cls-13,.cls-19,.cls-21,.cls-28,.cls-29,.cls-31,.cls-36,.cls-42,.cls-48,.cls-5,.cls-53,.cls-57,.cls-67{font-family:MyriadPro-Regular, Myriad Pro;}.cls-5{letter-spacing:0.02em;}.cls-48,.cls-6{letter-spacing:0.01em;}.cls-7{letter-spacing:0.01em;}.cls-8{letter-spacing:0.01em;}.cls-9{letter-spacing:0.01em;}.cls-10{letter-spacing:0.01em;}.cls-11{letter-spacing:0.01em;}.cls-12{letter-spacing:0.03em;}.cls-13{letter-spacing:-0.06em;}.cls-14{letter-spacing:-0.03em;}.cls-15{letter-spacing:-0.04em;}.cls-16{letter-spacing:-0.03em;}.cls-17{letter-spacing:-0.03em;}.cls-18{letter-spacing:-0.03em;}.cls-20{letter-spacing:0.02em;}.cls-21,.cls-46{letter-spacing:-0.02em;}.cls-22,.cls-28{letter-spacing:-0.01em;}.cls-23{letter-spacing:-0.02em;}.cls-24{letter-spacing:-0.01em;}.cls-25,.cls-31{letter-spacing:-0.02em;}.cls-26{letter-spacing:-0.02em;}.cls-27{letter-spacing:0.01em;}.cls-29{letter-spacing:-0.04em;}.cls-30{fill:#81f73c;}.cls-32{letter-spacing:0em;}.cls-33{letter-spacing:0.02em;}.cls-34{letter-spacing:0em;}.cls-35{fill:#f55;}.cls-36{letter-spacing:-0.02em;}.cls-37{letter-spacing:-0.01em;}.cls-38{letter-spacing:0.01em;}.cls-39{letter-spacing:0em;}.cls-40{letter-spacing:-0.01em;}.cls-41{fill:#bcc6cc;}.cls-42{letter-spacing:-0.02em;}.cls-43{letter-spacing:-0.01em;}.cls-44{letter-spacing:0em;}.cls-45{letter-spacing:-0.01em;}.cls-47{letter-spacing:0em;}.cls-49{letter-spacing:0em;}.cls-50{fill:#2c63dd;}.cls-51{fill:#0c08a5;}.cls-52{fill:#a8079d;}.cls-53,.cls-57{font-size:16.41px;}.cls-53{letter-spacing:-0.02em;}.cls-54{letter-spacing:-0.01em;}.cls-55{letter-spacing:-0.02em;}.cls-56{letter-spacing:-0.01em;}.cls-58{fill:#dce022;}.cls-59{letter-spacing:0em;}.cls-60{letter-spacing:0em;}.cls-61{letter-spacing:0.02em;}.cls-62{letter-spacing:0em;}.cls-63{letter-spacing:-0.04em;}.cls-64{letter-spacing:-0.03em;}.cls-65{letter-spacing:-0.01em;}.cls-66{letter-spacing:0.02em;}.cls-67{font-size:13px;letter-spacing:-0.01em;}.cls-68{letter-spacing:-0.02em;}.cls-69{letter-spacing:-0.02em;}</style></defs><title>Artboard 1</title><g id="Layer_2" data-name="Layer 2"><rect class="cls-1" x="-53.9" y="-66.8" width="733.4" height="527.27"/></g><g id="Layer_1" data-name="Layer 1"><path class="cls-2" d="M350.5,107c1.2,1.4,1.9,2.9,3,3.3s4.1.7,4.5,0c2.7-5,4.7-2.2,6.7.4s2.3,3.5,3.4,5.4c-7.7,1.3-15.8-3.5-22.1,3.7C342.4,113.2,348.6,111.2,350.5,107Z"/><path class="cls-2" d="M390.5,126.3l-6,1.5a133.8,133.8,0,0,1-.6-13.9c0-1.3,2-2.6,3.3-3.8s1.6.5,1.5.7-.8,2.6-1,3.9a18.2,18.2,0,0,0,0,5.7C388.2,122.2,389.4,123.9,390.5,126.3Z"/><g id="sør-amerika"><path id="SørAmerika" class="cls-3" d="M156.7,171.5c6.9-.6,5.6-3.7,7.2,1.4l14.6-2.7c2-.4,3.9-2,5.6-1.7,6.5.9,12.9,2.4,19.8,3.7l1.2,7.8h10.5l1.5,9.9c11.2-.6,17.3,8.4,26.8,12.9-6.1,4.6-6.6,10.6-7.4,16.8-.2,2.1-1.7,4.3-3.2,5.9q-18.7,20.1-37.6,40.1c-1.8,2-3,3.5-1.8,6.5,2.1,5.2-2,8.2-5.1,11.6l4.3,5.9-2.9,5.4h-2c-2.6-3.4-5.3-6.6-7.7-10.1a15,15,0,0,1-2.3-6.2c-1-13,1-25.8,3.5-38.6,1-5.2,1.6-10.6,2.8-15.7.6-3-.2-4.6-2.8-5.3-4.9-1.3-7.3-4.6-8.7-9.2a65.5,65.5,0,0,0-4-10.2c-2.2-4.7-3.9-9,.2-13.8,1.4-1.5.8-4.7,1.1-7.2-1-.4-1.6-.8-2.2-.7-5.6,1-9.5-.8-11.4-6.6"/><path class="cls-3" d="M199.7,165.2l-19.2-6.3-.4-1.7c1.2-.3,2.7-1.3,3.6-1,5.6,2.2,11,4.6,16.5,7Z"/><path class="cls-3" d="M176.7,153.2c-3.9,7.1-8.3.9-12.5,2.4l.9-5.8Z"/><rect x="117.7" y="288.6" width="153.5" height="100.58"/><g class="cls-4"><text class="cls-5" transform="translate(125.3 310.1)">S<tspan class="cls-6" x="6.1" y="0">ø</tspan><tspan class="cls-7" x="12.8" y="0">r</tspan><tspan class="cls-8" x="16.8" y="0">-</tspan><tspan class="cls-9" x="20.6" y="0">A</tspan><tspan class="cls-6" x="28" y="0">me</tspan><tspan class="cls-10" x="44.2" y="0">r</tspan><tspan class="cls-11" x="48.3" y="0">i</tspan><tspan class="cls-12" x="51.3" y="0">k</tspan><tspan class="cls-6" x="57.2" y="0">a:</tspan></text><text class="cls-13" transform="translate(125.3 324.5)">V<tspan class="cls-14" x="6" y="0">e</tspan><tspan class="cls-15" x="11.6" y="0">r</tspan><tspan class="cls-16" x="15.1" y="0">dens s</tspan><tspan class="cls-17" x="44.5" y="0">t</tspan><tspan class="cls-14" x="48" y="0">ørs</tspan><tspan class="cls-18" x="62.2" y="0">t</tspan><tspan class="cls-14" x="65.8" y="0">e </tspan><tspan class="cls-15" x="73.7" y="0">r</tspan><tspan class="cls-16" x="77.1" y="0">e</tspan><tspan class="cls-17" x="82.8" y="0">g</tspan><tspan class="cls-16" x="89.1" y="0">nskog: 7</tspan></text><text class="cls-19" transform="translate(125.3 338.9)">millioner <tspan class="cls-20" x="47" y="0">k</tspan><tspan x="52.8" y="0">m^2</tspan></text><text class="cls-21" transform="translate(125.3 353.3)">v<tspan class="cls-22" x="5.5" y="0">e</tspan><tspan class="cls-23" x="11.4" y="0">r</tspan><tspan class="cls-24" x="15.1" y="0">dens s</tspan><tspan class="cls-25" x="45.9" y="0">t</tspan><tspan class="cls-22" x="49.7" y="0">ørs</tspan><tspan class="cls-26" x="64.6" y="0">t</tspan><tspan class="cls-24" x="68.3" y="0">e el</tspan><tspan class="cls-27" x="85.3" y="0">v</tspan><tspan class="cls-22" x="91.2" y="0">: </tspan></text><text class="cls-19" transform="translate(125.3 367.7)">A</text><text class="cls-19" transform="translate(132.6 367.7)">ma</text><text class="cls-28" transform="translate(148.4 367.7)">z</text><text class="cls-19" transform="translate(153.4 367.7)">on el</text><text class="cls-29" transform="translate(178.1 367.7)">v</text><text class="cls-19" transform="translate(183.4 367.7)">.</text></g></g><g id="asia"><path class="cls-30" d="M530.7,110.3l8.5,5.3c-3.9,10.8-10.8,18.3-21.6,21.6-1.6.5-3.9-1.5-6-3.3C522.2,129.3,530.2,123.2,530.7,110.3Z"/><path id="Asia-2" class="cls-30" d="M362.4,66.3c9.3-4.5,17.3-16.2,31.8-12.2l.3-1.3-7.7-9.6c5.8-9.2,14.4-14.1,24.9-17l2.1,4.5c-8.3,3.1-17,4.8-21.4,13.9l14.2,8.8c-.7-6.4,7-13,12.7-11.6l13.2,3.1,1.1-.3c.7-5.9,6.2-6.5,10.6-8.3s9-2.7,13-5c10.9-6.3,21.2-1.7,32.7.9l-14.2,8.4.3,1.1L508,45h.5c4.7.4,9.6,2,13.9,1s7.6-4.4,11.7-7c1.1,6.8,6.5,7.1,12.2,7.6a98.5,98.5,0,0,1,22.8,4.2c5.9,1.9,13.4-1,20.1-1.8V76l-19.6,2.7c-.5,8.9-1.4,10.5-11.7,21.8-.7-4.3-2-8-1.6-11.4s2.8-6.4,4.3-9.6c-14-3-34.4,4.4-36.2,13.8l9-1.4.9,12.9c-4.7-.3-6.8,1.7-8.6,5.9s-5.5,4.9-8.6,7-5.4,3-3.2,7c.3.7-1,2.6-1.9,3.4a46,46,0,0,1-5.3,3.7l-3.3-8.8c-4.5.5-6.5,2.8-5.3,7,3.2,11.8-1.2,19-12.5,23.1-3.6,1.3-6.9,3.9-10.6,6.1l5.9,9.5-10,5.9-6-8.9c-.8,7.4,0,8.7,10.2,17.5l-9.1,1.7c1.4,1.2,2.5,2.3,3.8,3.3s3.1,1.6,3.2,2.5c.7,7,6.4,8,11.4,10a10.3,10.3,0,0,1,4.5,4.5c-7.7-.4-15.1,0-20.2-7.3s-9.5-10.6-14.9-16.5h8c-3.3-7.3-6.5-13.8-9.3-20.5-1.4-3.3-1.9-6.9-2.9-10.4a13.5,13.5,0,0,0-1.5-2.6c-.8.6-2.3,1.1-2.3,1.8-.7,5.7-5.3,7.8-9.1,10.6s-4.9,4.3-4.2,8.2-.8,4.4-3.7,4.8a54.4,54.4,0,0,0-5.4,1.5c-1.2-3.4-2.4-6.8-3.7-10.1s-1.2-6.3-5.2-7.4c-.6-.1-1-3.2-.7-4.8.6-3.6-.3-5.1-4.1-5.7-9.7-1.5-19.3-3.4-30.1-5.4,1.9,3.2,3.1,5.4,4.5,7.5s1.9,1.5,2.3,1.3c5.6-3,7.5,1.7,10.4,4.5-3.2,8.9-11.5,10.4-18.9,13-.9.3-3-1.5-3.7-2.7-4.3-7.7-8.2-15.7-12.4-23.4-.9-1.6-3-2.5-4.5-3.8l-1.7-12.6-6.2,7.2c-2.5-3.3-3.4-6.9-6.7-11.1Z"/><path class="cls-2" d="M350.5,107c-2,4.2-8.1,6.2-4.5,12.8,6.3-7.2,14.4-2.3,22.1-3.6-1.1-1.9-2.2-3.7-3.4-5.5s-4-5.4-6.7-.4c-.4.7-3.1.5-4.5,0S351.8,108.4,350.5,107Z"/><path class="cls-2" d="M390.5,126.3c-1.1-2.4-2.3-4.1-2.7-6a17.5,17.5,0,0,1,0-5.6,29.2,29.2,0,0,1,1-4c0-.1-1.4-.8-1.6-.6s-3.2,2.5-3.3,3.8c-.2,4.5.4,9,.7,13.8Z"/><rect x="362.3" y="81.4" width="135.1" height="74.83"/><g class="cls-4"><text class="cls-31" transform="translate(371.3 94.1)">A<tspan class="cls-22" x="7.2" y="0">sia</tspan></text><text class="cls-19" transform="translate(371.3 108.5)"><tspan class="cls-32">A</tspan><tspan class="cls-22" x="7.3" y="0">r</tspan><tspan x="11.1" y="0">eal: 44,579,000 </tspan><tspan class="cls-33" x="87.5" y="0">k</tspan><tspan class="cls-34" x="93.4" y="0">m^2</tspan></text><text class="cls-19" transform="translate(371.3 122.9)">populasjon: 4,1BN</text></g></g><g id="afrika"><path id="Afrika-2" class="cls-35" d="M355.6,139.1c.6,2.9.4,6,1.5,8.7s3.9,7.7,5.6,11.6c3.7,8.5,9.3,13.7,19.2,11.7h3.9l-21,30.6,2.3,10.2c.7,3.2-.3,5.6-3.4,7.4a6.4,6.4,0,0,0-2.8,4.3c-.2,4.8-2.6,8.4-5.6,11.8s-5,5.1-6.7,8.1c-4,7.5-10.4,7-17.1,5.7a4.8,4.8,0,0,1-3-2.6c-3.6-9.3-7-18.7-10.3-28.1a5.6,5.6,0,0,1,.7-4c3.6-5.9,3.3-10.4-1.2-15.7-2.1-2.4-4.1-4.9-6.3-7.6l2.8-3.1a2.5,2.5,0,0,0-.4-.9c-6.6-6.5-15-6.2-23.3-6.2s-16.1-8.4-17.2-16.4c-1.5-11.1,1-19.7,11-25.7a29.9,29.9,0,0,0,7.2-6.1c5-6.3,12-7.2,19.2-7.3,5-.1,5.6,3.7,5.6,7.4,9.7,3.8,9.7,3.8,17-.8,5.3,4.9,12.5,3.3,18.8,3.7"/><rect x="283.3" y="247.6" width="143.3" height="66.25"/><g class="cls-4"><text class="cls-36" transform="translate(295 264.6)">A<tspan class="cls-24" x="7.1" y="0">f</tspan><tspan class="cls-37" x="10.5" y="0">r</tspan><tspan class="cls-24" x="14.4" y="0">i</tspan><tspan class="cls-38" x="17.1" y="0">k</tspan><tspan class="cls-22" x="22.8" y="0">a: </tspan></text><text class="cls-19" transform="translate(295 279)"><tspan class="cls-39">S</tspan><tspan class="cls-40" x="5.9" y="0">t</tspan><tspan x="9.8" y="0">ørs</tspan><tspan class="cls-37" x="25" y="0">t</tspan><tspan x="28.9" y="0">e </tspan></text><text class="cls-36" transform="translate(332.5 279)">b<tspan class="cls-24" x="6.6" y="0">y</tspan></text><text class="cls-19" transform="translate(345.2 279)">: Lagos </text><text class="cls-19" transform="translate(295 293.4)">populasjon: 1.2 milliader</text><text class="cls-19" transform="translate(329.9 307.8)">.</text></g></g><g id="oseania"><path class="cls-41" d="M488.4,197.6l-4.2-1c-6.5-1.7-7.8-6.8-3.2-11.9,2.2-2.4,4.3-5,6.5-7.5C495.7,186.2,495.7,187.6,488.4,197.6Z"/><path class="cls-41" d="M495.2,197.3l4.6-10.5,5,1.7C501,197.9,500.4,198.6,495.2,197.3Z"/><path class="cls-41" d="M543.8,207.1c-8.6-1.8-15.5-3.2-22.5-4.8-8.7-1.9-8.7-1.9-8-11.8,8.9,2.3,17.8,4,26.3,7C541.6,198.2,542.1,203.1,543.8,207.1Z"/><path class="cls-41" d="M579.8,244.3c6.6,5.7,7,13.5,5.7,20.1-1,4.9-6.3,9-10,13.2-.6.6-4.3-.3-4.3-.9-.5-2.7-1.3-6.3,0-8.2,3-4.5,7.2-8.3,10.6-12C581.7,252.1,574.3,249.5,579.8,244.3Z"/><path class="cls-41" d="M528.1,217.8c.2-1.1.5-2.2.8-3.3l1.9-4.5c1.5.9,3.6,1.4,4.5,2.8,4.8,6.8,9.2,13.9,13.9,20.7,1.7,2.4,1.6,4.3.2,6.7-2.6,4.3-4.8,8.7-7.2,13.2-3.4,6.4-9.2,7.7-15.3,3.4s-10.7-7.8-15.4-11.3c-8,5.3-16.9,4.5-25.8,7.3.8-3,1.6-5,1.7-7a5,5,0,0,0-1.5-3.8c-3.5-2.5-4.1-12.3-.5-14.7,8.8-5.7,17.6-11.4,26.5-16.9a5.2,5.2,0,0,1,4.7.1C520.4,212.5,523.9,215.1,528.1,217.8Z"/><rect x="463.8" y="261" width="123.2" height="102.55"/><g class="cls-4"><text class="cls-42" transform="translate(469 276.1)">A<tspan class="cls-24" x="7.1" y="0">ust</tspan><tspan class="cls-43" x="22.1" y="0">r</tspan><tspan class="cls-24" x="25.8" y="0">alia</tspan></text><text class="cls-19" transform="translate(469 290.5)"><tspan class="cls-44">D</tspan><tspan x="8" y="0">et eksis</tspan><tspan class="cls-45" x="44.5" y="0">t</tspan><tspan class="cls-34" x="48.4" y="0">e</tspan><tspan class="cls-24" x="54.4" y="0">r</tspan><tspan class="cls-34" x="58.2" y="0">er </tspan></text><text class="cls-36" transform="translate(539.8 290.5)">o<tspan class="cls-46" x="6.4" y="0">v</tspan><tspan class="cls-22" x="11.9" y="0">er </tspan></text><text class="cls-19" transform="translate(469 304.9)">1500 edde<tspan class="cls-47" x="52.7" y="0">r</tspan><tspan x="56.7" y="0">kopp</tspan></text><text class="cls-48" transform="translate(551.6 304.9)">t</text><text class="cls-19" transform="translate(555.7 304.9)">yper</text><text class="cls-19" transform="translate(469 319.3)">ope<tspan class="cls-49" x="19.4" y="0">r</tspan><tspan x="23.3" y="0">ahus </tspan><tspan class="cls-24" x="49.6" y="0">v</tspan><tspan x="55.3" y="0">eier </tspan></text><text class="cls-19" transform="translate(469 333.7)">161k <tspan class="cls-45" x="26.6" y="0">t</tspan><tspan x="30.5" y="0">onn.</tspan></text></g></g><g id="europa"><path id="Europa-2" class="cls-50" d="M342.2,132.1c-4.5-2.4-7.3-4.7-8.8-9.7s-5.8-10-8.9-15l-2.2,1.3c.7,4.4,4.9,7.2,6.8,11.5l-4.9,6.9c-.2-8.2-5-11.5-9.2-13.9-11.5,1.6-17.6,10.1-25.5,16.8l-5.6-15.5c4.2,0,8.6,1.3,11-.3,4-2.5.9-6-2.2-9.3a119.8,119.8,0,0,1,10.9-5.3c5.6-2.3,8.7-7.5,7.2-12.9,2-1.8,3.6-2.5,5.5.3a4.4,4.4,0,0,0,3.8,1.5c4.5-1.2,10.5,2.3,13.5-4.7.8-2,5.3-2.4,8-3.5l5.6-2.1c-1.3-3.2-1.3-3.2-11.8-.9l-2.9-5.4,6.9-6-4-4.4-9.1,11.8h1.6c.3,3,1.8,6.8.6,8.9s-5.4,3-9,4.7c-1-9.2-7-4.9-11.5-5.2-.6-4.5-.3-8.5,2.8-12A38.3,38.3,0,0,0,316,63c4.7-8.6,11.5-13.8,21.5-14.4,3.3-.2,6.6-.6,9.8,0,7.1,1.3,14.2,3.2,21.3,4.9-1.6,8-7.1,8-13.6,6.1l-.3,1.3c2.3,1.7,3.7,8,6.8,7.3v5.3l-5.2,11.3-1.8,13.9-4.5,9.1S341.9,128.7,342.2,132.1Z"/><path id="Storbritania" class="cls-51" d="M287.6,84.3l3.7-3c3.1,3.4,6.4,6.6,9,10.2,1,1.3.7,3.7,1,6H290.9C297.1,91.6,289.8,89.1,287.6,84.3Z"/><path class="cls-51" d="M283.7,88.6c5.6,5.7,5.6,5.7.9,10C279.1,95.2,279.1,95.2,283.7,88.6Z"/><path class="cls-52" d="M261.3,63.4c12.8-5,13.8-5,19.7,2l-12.3,8.7Z"/><rect x="230.7" y="97.6" width="140.6" height="100.36"/><g class="cls-4"><text class="cls-53" transform="translate(240.3 115.2) scale(0.73 1)">E<tspan class="cls-54" x="7.8" y="0">u</tspan><tspan class="cls-55" x="16.7" y="0">r</tspan><tspan class="cls-56" x="21.7" y="0">opa:</tspan></text><text class="cls-57" transform="translate(348.8 134.9) scale(0.73 1)"> </text></g></g><g id="nord-amerika"><path id="Nord-Amerika-2" class="cls-58" d="M153.7,169.6c-2.7-.9-5.8-1-8.2-2.4-7.5-4.2-15.9-7.1-20.9-15a4.3,4.3,0,0,0-3.4-1.3c-4.7.7-7.2-1.8-9.6-5.3a191.4,191.4,0,0,0-13.9-18.3c-4.2-4.7-3.8-9.8-2.9-15s-4.2-9.8-6.9-14.3a1.4,1.4,0,0,0-1.3-.4c-5,1.9-5.4-2.1-6.8-5.2l2.8-1.1c-5.3-5.6-9.3-12.5-18.1-11.8-3.7.2-7.7.2-11,1.6-8.9,4-17.5,8.6-26.9,12.2l9.3-8.5c-.5-1.2-.5-1.6-.7-1.7-8.8-4.2-8.7-12.6-9.8-20.3-1.4-9.9-1.2-9.7,7.4-14.5,4.3-2.4,8.5-2.4,13-1.9,19.8,2.2,39.6,4.3,59.8,5.5-2.9-2.1-5.7-4.3-8.7-6.2s-2.4-2.7-2.1-5.4c.7-6.8,4.2-10,10.7-12.3,17.7-6.2,35.2-13.1,52.7-20a33.5,33.5,0,0,1,16-2.4c5.5.6,11.1.6,17.8.9L168.6,32.9l30.8,25.4c-7.7,11.4-11.8,12.4-27.7,7.1l1.7-10.5c-7.8-1.6-10.1,2.5-7.5,14.3-8.8-1.8-17.3-2.5-20.5,9.3,1.6,1.1,3.5,3.4,5.8,3.8,7.1,1.4,11.9,5.5,16,11a19.9,19.9,0,0,0,2.1,2c1.3-4.6,4.3-8,1.9-13-1.2-2.5-.2-6.1-.2-9.8,7,1.1,13.5,2,20,3.2a6.3,6.3,0,0,1,3.3,2c5.4,6.3,10.7,12.7,16.4,19.6-6.5,3.7-12.5,7.4-18.8,10.6-4.4,2.3-7.8,4.6-6.1,10.6-6.2.4-9.5,2.7-8.4,9.4.2,1.3-2.6,3.6-4.5,4.8-4.8,2.9-5.6,6.5-3,11.2.3.5.2,1.3.5,3.6-2.7-1.4-5.2-1.9-6-3.3-2-3.9-4.9-4.6-8.6-4.2h-2c-8.2,0-10.3,1.4-12.9,9a4.1,4.1,0,0,0,1,3.7,25.9,25.9,0,0,0,7.2,3.2c.9.2,2.2-1.3,3.4-1.8,3-1.3,4.9-.5,4.8,3a44,44,0,0,1-.6,5.8Z"/><path class="cls-58" d="M51.8,157.3,49,162.1a66.4,66.4,0,0,1-6-3.8c-2.6-2.2-5-2.4-8-.5-1.1.7-3.5.5-4.8-.1a89,89,0,0,1-10.7-6.4c-1.1-.8-1.4-2.8-2.1-4.3l1.4-.9c3.5,1.4,7.1,2.7,10.5,4.2s7.8,3.4,12,.3c.7-.5,2.8.1,3.8.8S49.3,155.1,51.8,157.3Z"/><path class="cls-58" d="M0,136.8l11.4,3.9-7.3,4.9Z"/><path id="Grønnland" class="cls-58" d="M263.2,0l14.7,12.5c-.2.5-.2,1-.4,1.1-7,4-8,10.5-8.6,17.7-.2,4.1-2.4,8-3.9,12-.4,1.1-1.4,1.9-1.8,3-4,8.8-10.4,14.3-20.2,15.4-6.2.8-9.6,4.2-11.3,10.1-.4,1.7-2.4,4-3.9,4s-6.1.8-8.8-2.7c-6.8-9-11.1-18.9-11.8-30.1-.4-6.2-4.8-8.7-9-11.5-.9-.6-2.7-.3-3.7.2-5.3,2.5-8.9,1.2-11-4.9,4.5-5.6,9.1-11.7,14.1-17.4C199,8,201.8,7.5,204,7.2L256.5.9a12.2,12.2,0,0,0,2.7-.9Z"/><rect x="290.3" y="5.4" width="156" height="70.62"/><g class="cls-4"><text class="cls-19" transform="translate(296.3 18.1)">No<tspan class="cls-22" x="14.5" y="0">r</tspan><tspan class="cls-59" x="18.3" y="0">d</tspan><tspan class="cls-60" x="25.1" y="0">-</tspan><tspan class="cls-39" x="28.7" y="0">A</tspan><tspan x="36" y="0">me</tspan><tspan class="cls-44" x="52" y="0">r</tspan><tspan x="56" y="0">i</tspan><tspan class="cls-61" x="58.8" y="0">k</tspan><tspan x="64.6" y="0">a:</tspan></text><text class="cls-19" transform="translate(296.3 32.5)">t<tspan class="cls-22" x="4" y="0">r</tspan><tspan class="cls-34" x="7.8" y="0">edje s</tspan><tspan class="cls-37" x="36.8" y="0">t</tspan><tspan x="40.7" y="0">ørs</tspan><tspan class="cls-37" x="55.9" y="0">t</tspan><tspan x="59.8" y="0">e ko</tspan><tspan class="cls-60" x="80.6" y="0">n</tspan><tspan x="87.2" y="0">tine</tspan><tspan class="cls-62" x="106.7" y="0">n</tspan><tspan class="cls-32" x="113.3" y="0">t</tspan><tspan x="117.2" y="0">.</tspan></text><text class="cls-19" transform="translate(296.3 46.9)"><tspan class="cls-44">D</tspan><tspan x="8" y="0">e</tspan><tspan class="cls-60" x="14.1" y="0">a</tspan><tspan class="cls-34" x="19.8" y="0">th</tspan><tspan class="cls-63" x="30.4" y="0"> </tspan><tspan class="cls-64" x="32.5" y="0">V</tspan><tspan x="38.8" y="0">alley har den l</tspan><tspan class="cls-65" x="108.2" y="0">a</tspan><tspan class="cls-24" x="113.9" y="0">v</tspan><tspan x="119.6" y="0">es</tspan><tspan class="cls-45" x="130.3" y="0">t</tspan><tspan class="cls-34" x="134.2" y="0">e </tspan></text><text class="cls-19" transform="translate(296.3 61.9)">punk<tspan class="cls-37" x="25.7" y="0">t</tspan><tspan class="cls-34" x="29.6" y="0">et i </tspan><tspan class="cls-32" x="47.5" y="0">A</tspan><tspan x="54.8" y="0">me</tspan><tspan class="cls-44" x="70.8" y="0">r</tspan><tspan class="cls-59" x="74.8" y="0">i</tspan><tspan class="cls-66" x="77.6" y="0">k</tspan><tspan x="83.5" y="0">a</tspan></text></g></g><text class="cls-67" transform="translate(242.7 132.8) scale(0.73 1)">1/10 eu<tspan class="cls-68" x="40" y="0">r</tspan><tspan x="44" y="0">ope</tspan><tspan class="cls-69" x="64.6" y="0">r</tspan><tspan x="68.6" y="0">e har blitt </tspan><tspan x="0" y="15.6">unfanget i en IKEA seng</tspan></text></g></svg>